<svg width="343" height="619" viewBox="0 0 343 619" fill="none" xmlns="http://www.w3.org/2000/svg">
<path d="M326.286 538.44C318.468 535.972 297.349 528.429 281.851 507.446C268.686 489.617 265.394 471.377 264.434 462.326C261.417 433.937 270.606 411.994 275.68 400.886C283.634 383.743 295.703 371.126 303.246 361.8C316.411 345.754 322.583 340.269 329.851 329.709C335.2 322.029 341.371 309.823 342.331 293.64C343.566 272.932 335.748 257.16 330.674 248.246C321.76 232.474 310.103 223.149 305.714 220.269C295.703 213.549 290.766 211.766 275.543 202.989C250.308 188.451 245.509 185.297 241.669 181.046C238.377 177.343 233.166 167.331 235.223 153.891C236.457 145.663 240.983 137.846 244.96 126.874C248.388 117.686 251.68 109.457 251.954 99.4457C252.229 91.4915 251.406 77.3657 241.257 66.3943C239.886 64.8857 228.503 52.4057 214.926 55.56C200.937 58.7143 196.411 74.76 195.726 77.64C193.943 83.8114 194.354 92.04 195.04 98.0743C196.274 110.28 198.743 115.629 206.286 141.823C209.851 154.029 211.36 160.2 212.457 164.589C215.337 176.52 216.708 184.749 217.257 190.646C217.806 196.269 218.765 205.731 214.377 219.72C212.594 225.343 209.851 234.12 202.446 242.897C194.628 252.223 186.674 257.571 179.543 260.863C165.28 267.583 151.428 269.914 147.314 270.189C135.52 271.011 124.274 269.503 114.674 264.291C112.754 263.194 99.8627 254.691 98.9027 241.389C97.5312 221.914 120.708 208.474 127.428 205.32C150.606 194.211 169.394 195.72 177.348 196.543C188.183 197.777 198.331 199.697 208.343 208.2C221.234 219.309 223.84 235.629 225.623 245.777C226.446 250.577 227.131 259.629 226.994 275.263C226.857 291.309 226.034 298.166 224.8 304.886C223.291 312.566 220.96 323.949 212.457 335.469C209.577 339.446 201.211 350.006 195.04 352.749C189.28 355.354 181.874 357.686 173.234 359.88C163.36 362.349 154.72 364.406 138.948 366.189C122.628 368.109 110.286 367.971 100.96 367.834C82.5827 367.697 71.3369 366.737 53.234 364.543C42.5369 363.309 29.3712 361.114 17.3027 355.629C13.1884 353.846 9.62273 352.2 6.74273 348.634C2.62845 343.423 -0.800059 335.469 3.03994 330.531C4.68566 328.337 5.23429 327.377 7.56572 324.497C10.5829 320.657 12.2284 318.326 12.9142 315.994C13.1884 314.897 13.7369 313.251 13.4626 311.194C13.1883 308.589 12.3656 307.903 11.5427 305.023C10.9942 303.103 10.3084 301.457 10.1713 297.891C10.0342 294.463 10.5826 291.994 11.4055 289.389C12.0912 286.92 13.5998 284.726 13.8741 284.177C14.5598 283.08 14.8342 282.669 16.0685 281.297C20.5942 275.812 20.0456 276.497 21.1427 275.4C24.0227 272.246 25.5312 270.874 26.4912 270.051C30.8797 266.486 35.4056 266.897 39.657 268.543C41.1656 269.091 42.5372 269.777 45.28 271.56C48.7086 273.754 49.2569 274.029 51.8626 275.537C54.8797 277.32 60.2284 280.749 59.817 281.709C59.4055 282.531 55.4283 280.337 48.434 279.24C41.3026 278.143 34.0341 276.909 26.217 279.377C24.297 280.063 22.1027 280.886 19.7713 280.063C17.3027 279.103 15.9312 276.497 14.5598 273.617C12.6398 269.366 12.2283 265.8 12.0912 263.743C11.8169 259.629 11.6799 256.474 13.5999 254.28C15.5199 252.36 17.7142 252.771 20.8685 250.989C24.7085 248.794 25.6684 245.366 26.9027 242.211C27.7255 239.88 30.0572 233.571 27.4514 227.4C26.6286 225.343 23.7486 222.326 20.5943 218.76C14.6972 212.177 13.1883 209.16 12.7769 207.377C11.8169 203.949 12.2286 199.149 15.1086 195.171C17.9886 191.194 24.4342 189.274 27.3142 188.451C27.3142 188.451 40.7543 185.023 60.3657 174.6C64.6172 172.269 71.0627 168.429 78.057 162.12" stroke="#FBFBFB" stroke-miterlimit="10" stroke-linecap="round" stroke-linejoin="round"/>
<path d="M112.206 186.12C109.188 186.394 103.977 186.394 98.6286 183.926C93.9657 181.731 89.1659 177.617 89.8516 176.109C90.5373 174.6 96.8459 176.657 103.566 178.029C127.292 183.103 145.394 177.891 145.531 179.4C145.669 180.497 136.069 183.926 125.783 183.789C121.257 183.789 103.017 183.926 95.2 172.406C93.4172 169.8 92.5943 167.057 92.0457 165.411C89.3028 157.046 90.6742 149.914 90.9485 148.131C91.3599 146.074 93.4172 137.297 101.097 130.029C109.874 121.937 120.297 121.114 125.371 120.703C141.143 119.469 152.8 126.737 156.777 129.206C170.766 138.12 178.583 152.109 177.074 153.617C175.703 154.989 166.926 144.017 150.743 138.669C145.257 136.886 132.228 132.497 119.063 137.297C112.754 139.629 106.857 143.606 102.88 146.623C96.7087 151.149 92.5943 155.126 84.9143 157.457C81.3486 158.554 78.0571 159.514 75.5885 157.869C71.0628 154.851 72.7086 145.389 73.2572 142.509C74.3543 136.886 78.8802 128.657 83.6802 122.349C89.303 114.943 92.8687 109.32 99.7258 102.326C111.52 90.12 123.04 82.7143 128.389 79.56C143.749 70.5086 145.394 73.6628 164.869 62.9657C181.737 53.7771 188.457 47.3314 192.709 41.8457C197.646 35.4 202.857 28.4057 201.348 20.4514C199.428 9.34281 185.303 2.89713 175.703 1.11427C156.091 -2.45144 137.714 10.7142 128.663 21.8228C117.143 36.0857 114.263 51.1714 114.263 51.1714C113.577 54.7371 111.932 62.9657 107.68 72.2915C105.349 77.3657 103.291 79.56 101.234 81.3428C95.7485 86.0057 89.5772 86.4172 86.0115 87.1029C75.5887 88.8857 68.8687 95.88 58.9945 105.891C41.1659 124.131 37.1886 147.72 36.2286 156.086" stroke="#FBFBFB" stroke-miterlimit="10" stroke-linecap="round" stroke-linejoin="round"/>
<path d="M62.9715 212.314C67.0857 215.331 69.0056 220.543 67.6342 225.206C66.3999 229.457 62.9714 232.474 59.1314 233.434C53.0971 234.806 48.1601 230.417 46.9258 229.183C44.4572 226.851 45.28 226.166 41.9885 222.326C39.3828 219.308 36.0916 215.469 31.5659 215.331C29.5087 215.331 26.7657 216.017 26.2171 217.663C25.6685 219.034 27.04 220.406 28.96 223.011C31.4285 226.577 33.7602 229.868 34.3087 233.708C34.4459 234.12 35.4058 240.703 31.1544 244.406C29.9201 245.503 28.4116 246.051 27.4516 246.463" stroke="#FBFBFB" stroke-miterlimit="10" stroke-linecap="round" stroke-linejoin="round"/>
<path d="M30.0571 252.771C36.9143 253.869 41.7142 256.474 44.3199 258.12C47.7484 260.451 50.4914 263.88 56.1143 271.011C61.6 278.006 62.5599 280.474 61.8742 282.669C61.3257 284.589 59.8171 285.686 57.7599 287.057C49.1199 292.817 43.6344 294.463 35.2686 298.577C29.0972 301.731 27.8628 302.966 24.1599 303.24C19.4971 303.651 15.6571 302.006 13.1885 300.634" stroke="#FBFBFB" stroke-miterlimit="10" stroke-linecap="round" stroke-linejoin="round"/>
<path d="M16.8913 552.429C4.82268 535.56 3.45132 521.709 3.58846 514.44C3.72561 502.92 7.15418 492.634 15.9313 473.023C22.1027 459.171 24.5715 456.429 26.3543 448.337C29.6457 432.429 24.5713 425.709 24.8456 407.88C24.9827 399.789 26.217 388.132 31.7027 373.869" stroke="#FBFBFB" stroke-miterlimit="10" stroke-linecap="round" stroke-linejoin="round"/>
<path d="M147.726 617.571C151.291 617.434 159.52 616.748 166.514 610.714C176.937 601.663 176.526 587.674 176.388 582.6C176.251 575.331 175.017 568.886 171.863 558.051C156.228 505.388 147.314 471.514 117.691 408.977C113.577 400.886 108.777 392.108 98.9028 385.251C90.1256 379.08 80.937 377.16 75.177 376.337" stroke="#FBFBFB" stroke-miterlimit="10" stroke-linecap="round" stroke-linejoin="round"/>
</svg>
